<?xml version="1.0" standalone="no"?>
<svg viewBox="0 0 200 200" xmlns="http://www.w3.org/2000/svg">
  <path fill="#E6FFFA" d="M37.6,-63.5C50.9,-57.5,65.2,-51.7,74.8,-41.2C84.4,-30.6,89.2,-15.3,86.9,-1.3C84.6,12.6,75.1,25.2,67.1,38.6C59.1,51.9,52.6,65.9,41.7,71.8C30.8,77.6,15.4,75.2,-0.1,75.4C-15.6,75.6,-31.2,78.4,-44.8,74.1C-58.5,69.8,-70.1,58.5,-78.4,45C-86.7,31.5,-91.7,15.7,-88.6,1.8C-85.5,-12.2,-74.4,-24.4,-63.8,-33.8C-53.1,-43.3,-42.9,-50,-32.4,-57.5C-21.8,-65,-10.9,-73.4,0.6,-74.6C12.2,-75.7,24.4,-69.5,37.6,-63.5Z" transform="translate(100 100)" />
</svg>
